<svg id="Ebene_1" data-name="Ebene 1" xmlns="http://www.w3.org/2000/svg" viewBox="0 0 101.55 82.76"><defs><style>.cls-1{fill:#b2b2b2;}.cls-2{fill:#1d71b8;}</style></defs><title>Regenwolke</title><path class="cls-1" d="M153.46,132.6a16.27,16.27,0,0,0-16.27-16.28h-.13c.08-.82.13-1.64.13-2.48a26.12,26.12,0,0,0-50.56-9.22,11.81,11.81,0,0,0-21,7.43,11.17,11.17,0,0,0,.11,1.54,17.86,17.86,0,0,0,4,35.26,17.49,17.49,0,0,0,2-.13v.13h64.76c.2,0,.39,0,.6,0s.39,0,.59,0h.37v0A16.27,16.27,0,0,0,153.46,132.6Z" transform="translate(-51.91 -87.72)"/><rect class="cls-2" x="71.85" y="151.94" width="7.38" height="19.35" rx="3.69" transform="translate(39.01 -103.84) rotate(30)"/><rect class="cls-2" x="120.15" y="151.94" width="7.38" height="19.35" rx="3.69" transform="translate(45.48 -127.99) rotate(30)"/><rect class="cls-2" x="96" y="151.94" width="7.38" height="19.35" rx="3.69" transform="translate(42.25 -115.91) rotate(30)"/></svg>