<svg id="Ebene_1" data-name="Ebene 1" xmlns="http://www.w3.org/2000/svg" xmlns:xlink="http://www.w3.org/1999/xlink" viewBox="0 0 122.29 94.3"><defs><style>.cls-1{fill:url(#Unbenannter_Verlauf_2);}.cls-2{fill:#dadada;}</style><linearGradient id="Unbenannter_Verlauf_2" x1="59.56" y1="134.21" x2="126.24" y2="200.89" gradientTransform="matrix(1, 0, 0, -1, -32.14, 214.7)" gradientUnits="userSpaceOnUse"><stop offset="0" stop-color="#fbba13"/><stop offset="1" stop-color="#ffce05"/></linearGradient></defs><title>sunny with cloud</title><g id="Mostly_Sunny" data-name="Mostly Sunny"><circle class="cls-1" cx="60.76" cy="47.15" r="47.15"/></g><path class="cls-2" d="M154.44,149.34a12.69,12.69,0,0,0-12.69-12.69h-.09c.06-.64.09-1.29.09-1.94a20.36,20.36,0,0,0-39.4-7.18A9.2,9.2,0,0,0,86,133.32a9.71,9.71,0,0,0,.08,1.21A13.92,13.92,0,0,0,89.22,162a14.17,14.17,0,0,0,1.6-.1v.1h50.46l.47,0,.47,0h.28A12.69,12.69,0,0,0,154.44,149.34Z" transform="translate(-32.14 -82.3)"/><path class="cls-2" d="M32.14,116.58A7.84,7.84,0,0,1,40,108.74H40c0-.39-.06-.79-.06-1.2a12.59,12.59,0,0,1,24.36-4.44,5.69,5.69,0,0,1,10.12,3.58,4.52,4.52,0,0,1-.06.74,8.61,8.61,0,0,1-1.94,17c-.34,0-.66,0-1-.06v.06H39.52A7.84,7.84,0,0,1,32.14,116.58Z" transform="translate(-32.14 -82.3)"/></svg>